<svg id="Layer_1" data-name="Layer 1" xmlns="http://www.w3.org/2000/svg" viewBox="0 0 483.74 394.22"><defs><style>.cls-1{fill:#fff;}.cls-1,.cls-2,.cls-3{stroke:#000;stroke-miterlimit:10;}.cls-2{fill:aqua;}.cls-3{fill:none;}</style></defs><title>logo 33 </title><path class="cls-1" d="M419.33,82.63A82.06,82.06,0,0,0,401,80.56h-.71a81.28,81.28,0,0,0-62,29.48,109.81,109.81,0,0,0-96.9-57.76h-1c-60.2.5-108.85,49.28-108.85,109.36,0,1.51,0,3,.1,4.51h0A49.84,49.84,0,0,1,82,211.51h-.44a49.87,49.87,0,0,1,0-99.74H82V80.1h-.72a81.5,81.5,0,0,0,0,163H82a81.27,81.27,0,0,0,62.75-29.5A109.84,109.84,0,0,0,240.38,271h1c60.65,0,109.81-49,109.81-109.38v-1.66a49.81,49.81,0,0,1,49.39-47.75H401a49.88,49.88,0,0,1,1.41,99.75h-1.84l-.28,31.62H401A81.52,81.52,0,0,0,419.35,82.59ZM242.15,240.51h-.65a77.59,77.59,0,0,1,0-155.17h.68A77.6,77.6,0,0,1,319.62,158c.09,1.35.14,2.72.15,4.1v.84A77.61,77.61,0,0,1,242.15,240.51Z" transform="translate(0.75)"/><path class="cls-2" d="M319.74,162.07h-.24c0-1.38,0-2.74.1-4.1C319.68,159.28,319.73,160.69,319.74,162.07Z" transform="translate(0.75)"/><path class="cls-3" d="M319.75,162.91a77.6,77.6,0,0,1-77.6,77.6h-.65a77.59,77.59,0,0,1,0-155.17h.68A77.6,77.6,0,0,1,319.62,158c.09,1.35.14,2.72.15,4.1C319.75,162.35,319.75,162.63,319.75,162.91Z" transform="translate(0.75)"/><path class="cls-3" d="M319.75,162.91a77.6,77.6,0,0,1-77.6,77.6h-.65a77.59,77.59,0,0,1,0-155.17h.68A77.6,77.6,0,0,1,319.62,158c.09,1.35.14,2.72.15,4.1C319.75,162.35,319.75,162.63,319.75,162.91Z" transform="translate(0.75)"/><path class="cls-1" d="M419.33.5V271.33c0,67.65-80,122.39-178.81,122.39S61.71,339,61.71,271.33V.5H102.5V271.33c0,45.1,61.73,81.59,138,81.59s138-36.49,138-81.59V.5Z" transform="translate(0.75)"/></svg>